<?xml version="1.0" standalone="no"?>
<!DOCTYPE svg PUBLIC "-//W3C//DTD SVG 1.1//EN" "http://www.w3.org/Graphics/SVG/1.1/DTD/svg11.dtd" >
<!--
2013-9-30: Created.
-->
<svg>
<metadata>
Created by iconfont
</metadata>
<defs>

<font id="iconfont" horiz-adv-x="1024" >
  <font-face
    font-family="iconfont"
    font-weight="500"
    font-stretch="normal"
    units-per-em="1024"
    ascent="896"
    descent="-128"
  />
    <missing-glyph />
    
    <glyph glyph-name="x" unicode="x" horiz-adv-x="1001"
d="M281 543q-27 -1 -53 -1h-83q-18 0 -36.5 -6t-32.5 -18.5t-23 -32t-9 -45.5v-76h912v41q0 16 -0.5 30t-0.5 18q0 13 -5 29t-17 29.5t-31.5 22.5t-49.5 9h-133v-97h-438v97zM955 310v-52q0 -23 0.5 -52t0.5 -58t-10.5 -47.5t-26 -30t-33 -16t-31.5 -4.5q-14 -1 -29.5 -0.5
t-29.5 0.5h-32l-45 128h-439l-44 -128h-29h-34q-20 0 -45 1q-25 0 -41 9.5t-25.5 23t-13.5 29.5t-4 30v167h911zM163 247q-12 0 -21 -8.5t-9 -21.5t9 -21.5t21 -8.5q13 0 22 8.5t9 21.5t-9 21.5t-22 8.5zM316 123q-8 -26 -14 -48q-5 -19 -10.5 -37t-7.5 -25t-3 -15t1 -14.5
t9.5 -10.5t21.5 -4h37h67h81h80h64h36q23 0 34 12t2 38q-5 13 -9.5 30.5t-9.5 34.5q-5 19 -11 39h-368zM336 498v228q0 11 2.5 23t10 21.5t20.5 15.5t34 6h188q31 0 51.5 -14.5t20.5 -52.5v-227h-327z" />
    

    
    <glyph glyph-name="shequ" unicode="&#58880;" d="M688.49004219 464.53534688l-48.19141143-1e-8c0-62.10637119-50.3405376-112.44690879-112.44266191-112.44690879s-112.45285547 50.3405376-112.45285547 112.44690879l-48.1956583 0c0-88.71986777 71.93034492-160.63832021 160.64851377-160.63832021S688.49004219 375.81547909999995 688.49004219 464.53534688zM993.70684268 297.28315253999995c0 81.5292123-45.56743769 152.44955156-112.7408212 189.04247314C877.87144883 678.83473359 721.09815928 834 527.8551207 834c-193.26427558 0-350.0613501-155.19499805-353.12194424-347.73553565C107.55979209 449.65625332 62 378.77074072000005 62 297.28315253999995c0-99.51307207 68.00670088-183.03765908 160.29938672-207.78829629L174.01963203-65.57527118999997l48.61868818 0 16.06748467 48.19141142 43.46757861 144.90807012c-1.12977862-0.02123613-2.17630987-0.33298769-3.31203427-0.33298769-93.15318516 0-168.66654082 75.51675352-168.66654083 168.67418554 0 55.34129268 27.01953721 104.0151955 68.18678614 134.76979688 18.26757862-128.72420948 105.73874472-234.89872558 223.60773955-279.89532774l-52.00122656-168.12288808 0.02378496-1e-8-14.9283624-48.19141142 48.19141143 0 16.07003261 48.19141143 69.09315732 198.64728633c-140.10778653 27.66087773-245.79896221 151.11420469-245.7989622 299.33176025 0 168.56800401 136.65219433 305.21255273 305.21680048 305.21255273s305.20745596-136.64454961 305.20745596-305.21255273c0-148.21755557-105.68183115-271.67173154-245.78961768-299.33176026l69.09315733-198.64728633 16.05814102-48.19141142 48.19311035 0L705.55988692-17.383860649999974l0.14865468 0-52.01906572 168.13308164c117.90042451 45.00084903 205.39792354 151.19490323 223.64086816 279.95818799 41.18678614-30.75120352 68.21991474-79.45993388 68.21991474-134.84285068 0-93.15743291-75.44624854-168.67418555-168.52553085-168.67418554-1.14336914 0-2.20009395 0.31344961-3.33751728 0.33723456l43.43614892-144.91146797-0.12317168 0 16.06153887-48.19141143 48.68154756 0-48.23643252 155.06163283C925.73751729 114.22765430000004 993.70684268 197.76073594000002 993.70684268 297.28315253999995z"  horiz-adv-x="1061" />

    
    <glyph glyph-name="wodedianpu" unicode="&#59083;" d="M60.976 454.112c0-47.612 36.143-87.286 84.886-98.74v-336.182h-56.59c-15.589 0-28.296-11.453-28.296-25.594s12.707-25.579 28.296-25.579h848.866c15.695 0 28.295 11.454 28.295 25.579s-12.601 25.579-28.296 25.579h-56.59v336.196c48.743 11.454 84.886 51.128 84.886 98.74v25.579h-905.459v-25.579zM626.887 351.78099999999995c62.567 0 113.183 45.816 113.183 102.332 0-47.612 36.143-87.286 84.886-98.74v-336.182h-424.433v332.59c62.567 0 113.183 45.816 113.183 102.332 0-56.516 50.721-102.332 113.183-102.332zM372.227 355.371v-336.182h-169.773v336.182c48.743 11.454 84.886 51.128 84.886 98.74 0-47.612 36.143-87.286 84.886-98.74zM853.253 709.9490000000001h-679.093l-113.183-204.664h905.459l-113.183 204.664zM300.048 653.087l-56.59-102.332c-2.536-4.497-7.516-7.093-12.707-7.093-2.097 0-4.256 0.392-6.293 1.343-6.957 3.138-9.84 10.851-6.293 17.143l56.59 102.332c3.532 6.293 11.982 8.843 18.953 5.75 7.002-3.154 9.764-10.851 6.339-17.143zM413.231 653.087l-56.59-102.332c-2.536-4.497-7.516-7.093-12.707-7.093-2.098 0-4.256 0.392-6.293 1.343-6.957 3.138-9.84 10.851-6.293 17.143l56.59 102.332c3.532 6.293 12.043 8.843 18.956 5.75 7.002-3.154 9.764-10.851 6.339-17.143zM527.862 556.444c0-7.093-6.308-12.797-14.155-12.797-7.802 0-14.155 5.689-14.155 12.797v102.332c0 7.093 6.353 12.797 14.155 12.797 7.847 0 14.155-5.689 14.155-12.797v-102.332zM690.33 545.246c-2.203-1.102-4.527-1.6-6.851-1.6-4.98 0-9.84 2.399-12.374 6.64l-61.903 102.332c-3.758 6.202-1.207 13.989 5.629 17.339 6.746 3.395 15.468 1.207 19.241-5.04l61.903-102.332c3.637-6.188 1.207-13.989-5.644-17.339zM802.969 545.005c-2.008-0.951-4.09-1.343-6.308-1.343-5.192 0-10.172 2.596-12.601 7.093l-56.59 102.332c-3.532 6.293-0.665 13.989 6.293 17.143 6.867 3.138 15.468 0.604 19.015-5.75l56.59-102.332c3.426-6.293 0.679-14.004-6.399-17.143zM301.496 168.80100000000004v58.946c-8.301 4.512-14.155 12.3-14.155 21.686 0 14.141 12.707 25.579 28.296 25.579 15.695 0 28.296-11.454 28.296-25.579 0-9.387-5.811-17.189-14.155-21.7v-58.946c8.344-4.512 14.155-12.3 14.155-21.7 0-14.141-12.601-25.579-28.296-25.579-15.589 0-28.296 11.454-28.296 25.579 0 9.402 5.855 17.203 14.155 21.717zM174.158 761.123c0 14.141 12.707 25.579 28.296 25.579h622.502c15.695 0 28.296-11.439 28.296-25.579s-12.601-25.579-28.296-25.579h-622.502c-15.589-0.015-28.296 11.439-28.296 25.579zM556.912 214.81399999999996l-19.996 18.094 80.027 72.362 19.996-18.094-80.027-72.362zM556.912 142.45299999999997l-19.996 18.094 160.041 144.723 19.996-18.094-160.041-144.723zM696.97 232.90800000000002l19.996-18.094-80.027-72.362-19.996 18.094 80.027 72.362z"  horiz-adv-x="1024" />

    
    <glyph glyph-name="daishouhuo" unicode="&#58881;" d="M863.4988576 783.16800747L356.4083392 783.16800747c-52.86699947 0-95.84586027-42.8205888-95.84586027-95.46600854l0-139.8070944-183.48344-105.6717824-6.71943786-4.4687104 0.7607936-1.30000853 0.0316544-0.1266176c-4.18382187-5.00792427-6.46620373-11.251456-6.46620374-17.68600533l0-293.40126187c0-17.14679147 12.86800747-31.09322667 28.68422827-31.09322667 15.8478752 0 28.7158816 13.9769984 28.7158816 31.18818987L122.0859552 402.16191147l179.9960128 103.86530666c12.48815573 4.4054016 20.85579947 16.13276373 20.85579947 29.15904214L322.93776747 683.1066709300001c0 20.85579947 17.08348267 37.84431893 38.06589866 37.84431894l497.86711787 0c20.982416 0 38.06589867-16.98852053 38.06589867-37.84431894l0-546.1704448c0-17.17844587 13.9780896-31.12488107 31.18818986-31.12488106 17.21010027 0 31.18818987 13.9780896 31.18818987 31.18818986L959.31306347 687.70309013C959.31306347 740.34850987 916.33420267 783.16800747 863.4988576 783.16800747zM757.28786027 230.02488960000005c-59.3015488 0-109.76064107-42.123104-120.5045376-100.3778784l-217.90364054 0.1266176c-10.80829653 58.19255787-61.2662976 100.25126187-120.5045376 100.25126187-67.89077227 0-123.1351168-54.9911104-123.1351168-122.59699414s55.24434453-122.59699413 123.1351168-122.59699413c55.117728 0 103.67428907 36.8619456 118.47648107 89.82390827l221.9924992-0.0949632c14.8338464-52.89865387 63.35875413-89.72894507 118.44482773-89.72894507 67.89077227 0 123.1034624 54.9911104 123.1034624 122.59699413S825.17863253 230.02488960000005 757.28786027 230.02488960000005zM757.28786027 49.58462612999995c-32.07560107 0-58.16090347 25.95868587-58.16090347 57.84326934 0 31.88567573 26.08530347 57.84326933 58.16090347 57.84326933s58.16090347-25.95868587 58.16090346-57.84326933C815.44876373 75.54331200000001 789.36346133 49.58462612999995 757.28786027 49.58462612999995zM298.37514347 49.58462612999995c-32.07560107 0-58.16090347 25.95868587-58.16090347 57.84326934 0 31.88567573 26.08530347 57.84326933 58.16090347 57.84326933 32.04394667 0 58.12925013-25.95868587 58.12925013-57.84326933C356.5033024 75.54331200000001 330.41799893 49.58462612999995 298.37514347 49.58462612999995zM205.79294827 318.77146132999997c0-16.5770144 13.53383893-30.07919893 30.20581546-30.07919893l116.82827627 0.0316544c16.4493056 0 29.41336747 4.91296107 38.5734592 14.64282987 14.54786667 15.43527787 13.37556693 37.33675947 13.34391253 37.463376l0 91.53542186c0 16.5770144-13.53383893 30.07919893-30.20581546 30.07919894s-30.20581547-13.50218453-30.20581547-30.07919894l0.0316544-83.42101333-108.4289792 0C219.2951328 348.85066027000005 205.79294827 335.31682133000004 205.79294827 318.77146132999997z"  horiz-adv-x="1024" />

    
    <glyph glyph-name="wodedingdan" unicode="&#58893;" d="M823.505021 779.29188921l-112.97302725 0 0-14.12209414c0-46.7915547-37.92485793-84.73008174-84.73008174-84.73008174L399.8558563 680.43971333c-46.7915547 0-84.73008174 37.93852704-84.73008174 84.73008174l0 14.12209414-112.97302724 0c-46.7915547 0-84.73008174-37.93852704-84.73008174-84.73008173l0-677.82449683c0-46.8052238 37.93728429-84.73008174 84.73008174-84.73008174l621.35227368 0c46.8052238 0 84.73008174 37.92485793 84.73008174 84.73008174L908.23510274 694.56180748C908.23510274 741.35336217 870.31024481 779.29188921 823.505021 779.29188921zM710.53199254 157.95328583000003L315.12577456 157.95328583000003c-15.59718449 0-28.24418949 12.63209191-28.24418948 28.2441895 0 15.58351538 12.64576102 28.24418949 28.24418948 28.24418949l395.40621798 0c15.58351538 0 28.24418949-12.6606741 28.24418949-28.24418949C738.77618203 170.58537776000003 726.11550791 157.95328583000003 710.53199254 157.95328583000003zM710.53199254 327.4134481L315.12577456 327.4134481c-15.59718449 0-28.24418949 12.63209191-28.24418948 28.24294673 0 15.58351538 12.64576102 28.23051916 28.24418948 28.23051916l395.40621798 0c15.58351538 0 28.24418949-12.64700379 28.24418949-28.23051916C738.77618203 340.04554000999997 726.11550791 327.4134481 710.53199254 327.4134481zM710.53199254 496.85869849L315.12577456 496.85869849c-15.59718449 0-28.24418949 12.64576102-28.24418948 28.24294673s12.64576102 28.24294673 28.24418948 28.24294673l395.40621798 0c15.58351538 0 28.24418949-12.64576102 28.24418949-28.24294673S726.11550791 496.85869849 710.53199254 496.85869849zM413.97795043 722.80475421l197.70310899 0c23.41628223 0 42.36504086 18.97609808 42.36504087 42.36504086l0 28.2441895c0 23.4026119-18.94875865 42.36504086-42.36504087 42.36504086L413.97795043 835.77902421c-23.4026119 0-42.36504086-18.96242896-42.36504086-42.36504086l0-28.24418949C371.61290957 741.78085228 390.57533853 722.80475421 413.97795043 722.80475421z"  horiz-adv-x="1024" />

    
    <glyph glyph-name="shouhou" unicode="&#58995;" d="M169.225681 209.88500466000005c-6.246261 0-12.518105 2.511193-18.127869 7.24091501l-89.149413 72.65269299c-9.24250199 7.814989-13.640672 19.428491-11.652388 30.46894201 1.733481 9.688663 8.375761 17.49035001 17.758456 20.88158599l111.59972701 40.27221501c10.92584 3.92642601 23.036669 0.50960601 30.62141499-8.56711901 6.246261-7.470135 8.936533-17.771759 7.18974901-27.54944899l-23.15127901-111.178125C191.688275 219.53580566999995 181.82053399 209.88500466000005 169.225681 209.88500466000005zM847.517031 404.341281c-7.215332 0-13.05329399 5.838985-13.053294 13.05431701 0 135.860271-91.420129 255.733429-222.307132 291.51742299-6.961552 1.899256-11.05273001 9.07672601-9.153474 16.037255 1.912559 6.960529 9.16575401 11.001565 16.03725499 9.15347399 142.20988601-38.88256599 241.531985-169.107489 241.53198501-316.70917499C860.572372 410.18026599 854.733387 404.341281 847.517031 404.341281zM549.880237 719.11231401c-0.2415 0-0.485047 0-0.72757099 0.02558299-5.59646199 0.305969-11.23078601 0.459464-16.878412 0.459464-7.215332 0-13.054317 5.838985-13.05431701 13.05431701s5.838985 13.054317 13.05431701 13.05431699c6.131651 0 12.225439-0.178055 18.30797099-0.51063 7.202029-0.382717 12.709463-6.53994999 12.313443-13.743002C562.526255 724.50513799 556.76401801 719.11231401 549.880237 719.11231401zM521.298272-40.37113466000005c-102.03795401 0-200.519919 36.90553801-277.27709399 103.911628-10.861372 9.486048-11.982916 25.981744-2.49891401 36.843116 9.497305 10.849092 26.007327 11.983939 36.843116 2.49788999 67.24759001-58.706053 153.516396-91.036389 242.932891-91.03638899 203.872271 0 369.729739 165.857469 369.72973901 369.729739 0 203.872271-165.856445 369.742019-369.72973901 369.742019-203.858968 0-369.716436-165.869748-369.716436-369.742019 0-15.82031401 1.006933-31.74398199 2.996241-47.321772 1.835811-14.30377401-8.273431-27.38367401-22.577205-29.20720601-14.252609-1.899256-27.38367401 8.28673399-29.207206 22.57720501-2.281973 17.78403799-3.429099 35.925211-3.42909899 53.951773 0 232.671177 189.275831 421.960311 421.93370499 421.960311S943.246303 614.24705034 943.246303 381.57587334000004C943.246303 148.91697533 753.95614599-40.37113466000005 521.298272-40.37113466000005zM465.970152 363.98988700999996l-93.228311 156.218948c-3.84967801 6.84591801-5.78782 13.500479-5.78782 19.925818 0 6.42534 2.792603 11.57564 8.363482 15.425318 5.570879 4.28356 12.110829 6.437619 19.60654699 6.43761901 7.496741 0 14.240329-5.1503 20.25737001-15.43759701l104.792695-176.795589 104.790648 176.795589c6.42534 10.708899 12.95301001 16.075117 19.60757 16.075117 6.62897799 0 13.168927-2.14178 19.60757-6.42534 6.844895-4.295839 10.287297-9.31924999 10.287297-15.107069 0-5.78782-2.369977-12.761652-7.075139-20.894889l-93.21705499-156.218948 74.56525299 0c17.14754201 0 25.726941-8.579399 25.726941-25.725918 0-16.71366-8.579399-25.063839-25.726941-25.063839l-102.21703301 0 0-40.501436 102.21703301 0c17.14754201 0 25.726941-8.58042201 25.726941-25.72694099 0-16.712637-8.579399-25.062815-25.726941-25.06281501l-102.21703301 0 0-84.866876c0-11.57564-1.721201-19.72218-5.13699699-24.425296-3.44240199-4.730745-10.505261-7.07616201-21.213137-7.076162-10.72220199 0-17.911952 2.34541799-21.545712 7.076162-3.64604 4.703115-5.456269 12.849656-5.456269 24.425296l0 84.866876-100.94199301 0c-17.146519 0-25.71363799 8.566096-25.71363799 25.712615 0 9.42158 2.02614599 15.96152999 6.106068 19.60757 4.066619 3.632737 10.172687 5.469572 18.319228 5.469572l102.229313 0 0 40.501436-100.941993 0c-17.146519 0-25.71363799 8.567119-25.71363801 25.713638 0 9.42158 2.02614599 15.960507 6.106068 19.606547 4.066619 3.63376 10.172687 5.469572 18.319228 5.469572L465.970152 363.98886401000004z"  horiz-adv-x="1024" />

    
    <glyph glyph-name="gouwuche" unicode="&#59319;" d="M941.760462 147.611152 424.000272 147.611152c-66.451458 0-86.34146 25.263383-99.772354 71.807443-38.021965 132.0065-129.60787 455.131805-150.841473 529.97642L82.183256 749.395014c-11.879562 0-21.457708 9.561773-21.457708 21.441335s9.577123 21.457708 21.457708 21.457708L189.663152 792.294057c9.577123 0 18.019399-6.347568 20.61041-15.621792 0 0 112.068402-395.667481 155.254993-545.342386 8.905834-30.92329 13.846356-40.74089 58.472739-40.74089l517.761214 0c11.879562 0 21.521153-9.577123 21.521153-21.457708S953.641047 147.611152 941.760462 147.611152L941.760462 147.611152zM882.953102 332.397738l-539.873838-77.099982-6.043646 42.563398 539.79402 77.099982c42.259476 6.043646 43.474141 12.551874 43.474141 50.701752L920.303778 555.942047c0 23.712051-19.346627 42.97886-42.97886 42.97886l-515.746324 0c-11.864212 0-21.521153 9.577123-21.521153 21.457708 0 11.864212 9.657964 21.521153 21.521153 21.521153l515.746324 0c47.39238 0 85.957721-38.533618 85.957721-85.957721l0-130.280182C963.282638 371.44301 950.826955 342.13552 882.953102 332.397738L882.953102 332.397738zM383.035278-24.30429c-23.760147 0-42.97886 19.298532-42.97886 42.97886 0 23.743774 19.218714 42.97886 42.97886 42.97886s42.97886-19.235087 42.97886-42.97886C426.014138-5.005758 406.795425-24.30429 383.035278-24.30429L383.035278-24.30429zM855.802742-24.30429c-23.760147 0-42.97886 19.298532-42.97886 42.97886 0 23.743774 19.218714 42.97886 42.97886 42.97886s42.97886-19.235087 42.97886-42.97886C898.781602-5.005758 879.562888-24.30429 855.802742-24.30429L855.802742-24.30429z"  horiz-adv-x="1024" />

    
    <glyph glyph-name="duihao2" unicode="&#58891;" d="M63.223 384c0 0 231.768-189.585 254.791-350.823 0 0 303.907 497.492 641.581 542.003 0 0-102.837 74.9439-69.0701 193.396 0 0-187.256-18.6845-540.279-566.637L184.794 482.788 63.223 384Z"  horiz-adv-x="1024" />

    
    <glyph glyph-name="daifukuan" unicode="&#59024;" d="M374.83265365 266.21991253c-5.33479993 0-9.6589915 4.32419157-9.6589915 9.6589915L365.17366215 543.86935353c0 5.33479993 4.32419157 9.6589915 9.6589915 9.6589915s9.6589915-4.32419157 9.6589915-9.6589915L384.49164515 275.87890402999994C384.49164515 270.54410411000003 380.16745358 266.21991253 374.83265365 266.21991253zM524.53305458 402.56817721L229.14092032 402.56817721c-5.33479993 0-9.6589915 4.32419157-9.6589915 9.6589915 0 5.33363598 4.32419157 9.6589915 9.6589915 9.6589915L524.53305458 421.88616135c5.33363598 0 9.6589915-4.32535666 9.6589915-9.6589915C534.19088099 406.89236878 529.86668942 402.56817721 524.53305458 402.56817721zM486.65504313 541.52795591L263.26407965 541.52795591c-5.33363598 0-9.6589915 4.32419157-9.65899151 9.6589915s4.32535666 9.6589915 9.65899151 9.6589915l223.39096348 0c5.33479993 0 9.66015659-4.32419157 9.66015658-9.6589915S491.98984306 541.52795591 486.65504313 541.52795591zM379.44675442 541.52795591c-2.12600263 0-4.26830621 0.6997413-6.05317007 2.13764551-4.15304021 3.34734791-4.80853902 9.42729671-1.46235505 13.58150201l100.66262129 124.9486518c3.34851299 4.15536925 9.42846179 4.80737394 13.58150202 1.46118998s4.80853902-9.42729671 1.46235505-13.58033692l-100.66262129-124.94865181C385.06680661 542.75861618 382.26900537 541.52795591 379.44675442 541.52795591zM372.20251079 542.14386802c-2.78266539 0-5.54320896 1.19689557-7.45265266 3.51034937l-102.64658034 124.3327397c-3.39624846 4.11345465-2.81410105 10.2027173 1.2993536 13.59896576 4.11345465 3.39508451 10.20155335 2.81410105 13.59780182-1.2993536L379.64468451 557.95266674c3.39624846-4.11345465 2.81526499-10.20155335-1.29818851-13.59780181C376.54649629 542.86922411 374.36810013 542.14386802 372.20251079 542.14386802zM846.46878663 100.49764806999997L720.0205221 100.49764806999997c-6.42923747 0-11.64295054 5.21371307-11.64295055 11.64295054L708.37757155 238.59119104c0 6.42923747 5.21371307 11.64295054 11.64295055 11.64295054s11.64295054-5.21371307 11.64295054-11.64295054l0-114.80764189 114.80531399 0c6.42923747 0 11.64295054-5.21371307 11.64295054-11.64295054S852.89918805 100.49764806999997 846.46878663 100.49764806999997zM751.66839011-53.85876934999999c-108.94425202 0-197.57737757 88.64593237-197.57737756 197.60648533 0 108.95938787 88.63312555 197.60532025 197.57737756 197.60532025 108.94192413 0 197.57388459-88.64593237 197.57388459-197.60532025C949.24343865 34.78599907 860.61147819-53.85876934999999 751.66839011-53.85876934999999zM751.66839011 318.06597120000004c-96.10440704 0-174.29147648-78.19871346-174.29147648-174.31941917s78.18706944-174.32058425 174.29147648-174.32058424c96.10324195 0 174.2879835 78.19987741 174.28798351 174.32058424S847.77163207 318.06597120000004 751.66839011 318.06597120000004zM500.89087886-51.539493549999975L180.84130475-51.539493549999975c-58.49534805 0-106.08590848 47.5963813-106.08590848 106.10104434L74.75539627 715.7577250100001c0 58.5046619 47.59056043 106.10104434 106.08590848 106.10104434l661.1076881 0c58.48603307 0 106.06844359-47.5963813 106.0684436-106.10104434l0-304.36186226c0-6.43040142-5.21371307-11.64295054-11.64295055-11.64295054s-11.64295054 5.21254912-11.64295054 11.64295054L924.73153536 715.7577250100001c0 45.66481579-37.13635555 82.81514325-82.78254251 82.81514326L180.84130475 798.57286827c-45.65666589 0-82.80000739-37.15032633-82.8000074-82.81514326l0-661.1973393c0-45.66481579 37.14334037-82.81514325 82.8000074-82.81514326l320.04957411 0c6.42923747 0 11.64295054-5.21371307 11.64295055-11.64295054S507.32011634-51.539493549999975 500.89087886-51.539493549999975z"  horiz-adv-x="1024" />

    
    <glyph glyph-name="wode" unicode="&#58968;" d="M812.8143648 519.5916192c0 164.15032107-134.66927893 297.19104213-300.81163627 297.19104213-166.14890667 0-300.81272747-133.04181227-300.81272746-297.19104213 0-94.7827136 45.06149333-178.9907168 114.97922986-233.40113493-125.37820373-63.14372267-213.6292224-188.86794133-223.4038432-334.97423574l44.9927264 0c10.55287893 136.81958613 99.3387456 257.9561184 223.24666347 306.114272 39.37136533-18.70876587 94.38321493-34.9288512 140.99794987-34.9288512 46.61364373 0 90.5792448 10.77555093 129.95388373 29.47995094l30.86073173 17.88793813 24.993776 16.42092587C767.7583296 340.6009024 812.8143648 424.8089056 812.8143648 519.5916192L812.8143648 519.5916192zM512.00272853 270.81633066999996c-139.08777813 0-251.82282987 111.3815584-251.82282986 248.79602666 0 137.37626453 112.73505173 248.77747093 251.82282986 248.77747094 139.08232107 0 251.84247787-111.40011413 251.84247787-248.77747094C763.8441152 382.19679786999995 656.67039147 270.81633066999996 512.00272853 270.81633066999996L512.00272853 270.81633066999996zM766.487792 242.53269333000003l-0.21939733-0.31326826c-4.91186987 4.68810667-11.46757867 7.63959467-18.79717974 7.63959466-15.12965013 0-27.37330453-5.7534368-27.37330453-20.87872106 0-10.44263467 6.03941653-19.1977696 14.61663253-23.80946987l-0.1811936-0.26960747c82.25417067-58.78307413 123.73654827-147.79052053 131.9131744-253.68388266l54.7869952 0C913.36907093 68.84352106999995 854.56089173 173.57877440000004 766.487792 242.53269333000003L766.487792 242.53269333000003zM766.487792 242.53269333000003"  horiz-adv-x="1024" />

    
    <glyph glyph-name="zuofanhui2" unicode="&#59001;" d="M305.876 355.754c-7.28457 0-14.5322 2.77262-20.0787 8.31917-11.0931 11.0931-11.0931 29.0628 0 40.1559L698.045 816.4590000000001c11.0931 11.0931 29.0628 11.0931 40.1559 0 11.0931-11.0931 11.0931-29.0628 0-40.1559L325.954 364.073C320.406 358.528 313.159 355.754 305.876 355.754ZM716.602-54.971000000000004c-7.28457 0-14.5322 2.77262-20.0787 8.31917L285.797 364.073c-11.0931 11.0931-11.0931 29.0628 0 40.1559s29.0628 11.0931 40.1559 0l410.725-410.725c11.0931-11.0931 11.0931-29.0628 0-40.1559C731.133-52.196000000000026 723.886-54.971000000000004 716.602-54.971000000000004Z"  horiz-adv-x="1024" />

    
    <glyph glyph-name="duihao1" unicode="&#58931;" d="M410.487 78.84799999999995C393.216 78.84799999999995 376.013 85.47000000000003 362.837 98.64499999999998L93.252 369.323C66.97 395.742 66.97 438.613 93.252 465.033 119.603 491.452 162.27 491.452 188.553 465.033L410.487 242.21000000000004 834.56 667.989C860.843 694.477 903.509 694.477 929.86 667.989 956.143 641.5699999999999 956.143 598.767 929.86 572.348L458.138 98.64499999999998C444.962 85.47000000000003 427.691 78.84799999999995 410.487 78.84799999999995Z"  horiz-adv-x="1024" />

    
    <glyph glyph-name="youfanhui" unicode="&#58898;" d="M748.407 385.16L748.656 385.408 306.594 827.4793999999999 300.949 833.124 263.008 795.186 673.027 385.16 268.639-19.20399999999995 262.994-24.850000000000022 300.932-62.79200000000003 748.657 384.909Z"  horiz-adv-x="1024" />

    
    <glyph glyph-name="zhanghuyue" unicode="&#58911;" d="M952.12441953 216.26352831999998c0-68.25213633 1.08379511-132.67725996-0.37775479-197.04392139-0.98036279-43.10897959-39.24598974-79.86808565-82.17508622-79.94453643-233.0385249-0.43171963-466.08154717-0.46319854-699.12007207-0.02698242-49.85909122 0.09443848-90.36426357 42.41642959-90.37775479 91.94273702-0.05396484 167.09788653-0.06295869 334.20026953 0.00449737 501.29815605C80.0962376 588.48658388 118.21346123 626.77919326 174.46289873 626.81067305c227.04392109 0.13041563 454.09233955 0.1034332 681.13626153 0.01349121 50.63258847-0.01798857 89.80662568-31.06130977 93.76405312-80.9743667 3.82251533-48.2176582 0.82746211-96.9749666 0.82746211-148.42602334-9.04811836 0-16.99895039 0-24.95427979 0-67.43816543-0.00899385-134.88532471 0.67006406-202.31449541-0.20686553-73.59466377-0.95787773-115.87168301-68.94468633-85.00374756-135.57787471 15.4294708-33.30984902 43.43276865-45.41148281 78.45600323-45.36651181 69.68670381 0.09443848 139.37340762 0 209.06011055-0.01349121C933.52900625 216.26352831999998 941.62374424 216.26352831999998 952.12441953 216.26352831999998zM939.95532881 406.51686445c0 41.71938222-1.92025195 81.3206417 0.46319853 120.66106992 3.37280801 55.66481807-41.07180322 91.45705253-90.57112909 91.24569053-223.25738291-0.96687158-446.5192623-0.30580136-669.78114258-0.50367305C123.12876641 617.86598701 88.97346758 583.5263077100001 88.94648516 527.17343701c-0.08094727-163.32483867-0.06295869-326.64967734-0.00899385-489.9745169 0.01798857-50.02998047 36.16549278-88.86673652 86.41133262-89.00164863 229.25198584-0.62509394 458.50846992-0.50816953 687.76045576-0.07195341 42.5963127 0.08094727 76.65717305 28.61939707 78.82476416 71.00884423 3.12097148 61.06131035 0.79598232 122.40143877 0.79598232 184.93779023-7.2627794 0.40023984-13.07300273 0.99835136-18.88322607 1.00284786-68.92669776 0.0764499-137.86238935-0.71953242-206.7755959 0.31029873-60.76450283 0.90840937-99.24149268 41.16174521-99.18303135 101.18872705 0.05396484 55.97061943 44.38165166 99.37640566 102.24104327 99.88007784 26.217958 0.22935059 52.44491074 0.05396484 78.66736611 0.05396484C845.04901836 406.51686445 891.30595097 406.51686445 939.95532881 406.51686445zM812.26982481 676.5303556700001c-155.29755674 0-306.93899004 0-463.23939463-1e-8 6.47579092 4.69045107 9.39439336 7.37970293 12.78518994 9.18303135 80.47519102 42.83016065 160.74801387 86.04257256 241.60545615 128.13521221 51.44655937 26.78458974 107.04392138 20.36276455 140.22785215-17.42167617 14.00839453-15.95113154 22.77769482-36.59271504 33.41328135-55.39499297C788.70064502 720.4578026300001 799.74096875 699.54639492 812.26982481 676.5303556700001zM796.0128919 685.64143271c-17.10688096 31.33113487-32.08664355 60.36876035-48.72582862 88.42602305-6.27791924 10.58611904-14.93928984 21.04182246-25.012742 27.8773796-37.10088457 25.17913388-75.94213799 23.30385293-114.57202851 2.96357343-68.07225322-35.84620019-136.01409082-71.94423604-203.94693457-108.05576397-4.73542207-2.51836347-8.95367989-5.99910029-16.60770528-11.20671562C524.83915479 685.64143271 658.14600518 685.64143271 796.0128919 685.64143271zM767.6408331 304.95487909999997c-0.63858516-26.66316885-22.76420362-47.23279893-49.80512636-46.30640098-27.35571885 0.9353918-47.32274004 22.50786973-46.07255302 49.78264131 1.26367823 27.58057295 21.61744893 45.40248808 50.68205683 44.37715518C749.01843828 351.86388808000004 768.27941826 331.47414199 767.6408331 304.95487909999997zM682.03447754 307.18992627c-0.39574248-22.3010042 15.03372832-38.22515332 37.22230547-38.41403116 21.83780567-0.18887695 38.85474463 16.43681602 38.65237558 37.76195479-0.19337432 20.1469043-16.40533623 36.47129326-36.91200761 37.16834062C698.60620567 344.46619658 682.42572354 329.29755615 682.03447754 307.18992627z"  horiz-adv-x="1024" />

    
    <glyph glyph-name="shouye" unicode="&#58956;" d="M971.763212 322.87645499999996l-159.434192 159.838792V667.451408a41.28368 41.28368 0 0 1-41.276455 41.276455H586.88718l-47.24431 47.367135a41.262005 41.262005 0 0 1-29.232371 12.130783h-1.069301a41.25478 41.25478 0 0 1-29.181796-12.123558L48.02461 322.86923a41.276455 41.276455 0 0 1 58.450293-58.298567l35.503676 35.604826v-262.766218a41.26923 41.26923 0 0 1 41.276455-41.26923h217.77611a41.26923 41.26923 0 0 1 41.276455 41.26923V216.53882699999997h135.172624v-179.122331a41.26923 41.26923 0 0 1 41.276455-41.26923h217.79056a41.276455 41.276455 0 0 1 41.276455 41.26923V300.17548899999997l35.510901-35.604826a41.276455 41.276455 0 0 1 58.428618 58.305792z m-241.987102 303.305722v-60.704494l-60.55277 60.704494h60.55277z"  horiz-adv-x="1024" />

    
    <glyph glyph-name="wodeshequ" unicode="&#58883;" d="M785.06666667 566.04444445v136.6546963H694.04444445V566.04444445h-91.02222223V839.11111111h-546.13333333v-910.22222222h910.22222222V566.04444445h-182.04444444z m-364.08888889-455.11111112h-182.04444445V201.95555554999999h182.04444445v-91.02222222z m0 227.43419259h-182.04444445v91.02222223h182.04444445v-91.02222223z m0 227.67691853h-182.04444445v91.02222222h182.04444445V566.04444445z m364.08888889-455.11111112H694.04444445V201.95555554999999h91.02222222v-91.02222222z m0 182.04444445H694.04444445V384h91.02222222v-91.02222222z"  horiz-adv-x="1024" />

    
    <glyph glyph-name="zuofanhui1" unicode="&#58885;" d="M711.1-32.299999999999954c-13.2 0-26.3 5-36.4 15.2L297.8 363.1c-20.1 20.2-20.1 53.1 0 73.3L674.7 816.8003c20.1 20.3 52.6 20.3 72.7 0 20.1-20.2 20.1-53.1 0-73.3L406.9 399.8l340.5-343.6c20.1-20.3 20.1-53.1 0-73.3-10-10.1-23.2-15.2-36.3-15.2Z"  horiz-adv-x="1024" />

    
    <glyph glyph-name="fenlei" unicode="&#58927;" d="M579.92533333 145.06666667000002a171.008 171.008 0 1 1 171.008 171.008H605.75288853c-14.3587552 0-25.8048-11.4688-25.8048-25.8048V145.06666667000002zM750.93333333 361.2444448A216.17777813 216.17777813 0 1 0 534.7555552 145.06666667000002V290.24711147000005A70.8608 70.8608 0 0 0 605.73013333 361.2444448H750.93333333zM489.2444448 145.06666667000002a216.17777813 216.17777813 0 1 0-216.17777813 216.17777813h145.2032A70.8608 70.8608 0 0 0 489.2444448 290.26986667000006V145.06666667000002z m-216.17777813 171.008a171.008 171.008 0 1 1 171.008-171.008V290.24711147000005c0 14.336-11.4460448 25.8048-25.8048 25.8048H273.06666667zM534.7555552 622.95608853A216.17777813 216.17777813 0 1 0 750.93333333 406.7555552H605.75288853A70.8608 70.8608 0 0 0 534.7555552 477.73013333V622.93333333z m216.17777813-171.0307552a171.008 171.008 0 1 1-171.008 171.008v-145.2032c0-14.336 11.4460448-25.8048 25.8048-25.8048H750.93333333zM444.07466667 622.93333333a171.008 171.008 0 1 1-171.008-171.008h145.2032c14.3587552 0 25.8048 11.4688 25.8048 25.8048V622.93333333zM273.06666667 406.7555552A216.17777813 216.17777813 0 1 0 489.2444448 622.93333333v-145.2032A70.8608 70.8608 0 0 0 418.26986667 406.7555552H273.06666667z"  horiz-adv-x="1024" />

    
    <glyph glyph-name="shezhi" unicode="&#58971;" d="M64 421.3c1.2 10 5.1 19.9 11.9 28.4 6.8 8.5 15.5 14.5 25.1 17.8l86.3 30.7c4.2 11.7 8.9 23.3 14.4 34.6l-39.3 82.8c-4.3 9.1-6.3 19.5-5.1 30.2s5.3 20.5 11.5 28.4l52.9 52.9c8 6.2 17.7 10.4 28.4 11.5s21.1-0.8 30.2-5.1l82.8-39.3c11.4 5.4 22.9 10.2 34.7 14.4l30.7 86.3c3.4 9.5 9.4 18.3 17.8 25.1 8.5 6.8 18.3 10.7 28.4 11.9h74.4c10-1.2 19.9-5.1 28.4-11.9 8.5-6.8 14.5-15.5 17.8-25.1l30.7-86.3c11.7-4.2 23.3-8.9 34.7-14.4l82.8 39.3c9.1 4.3 19.5 6.3 30.2 5.1 10.8-1.2 20.5-5.3 28.4-11.5l52.9-52.9c6.2-8 10.4-17.7 11.5-28.4s-0.8-21.1-5.1-30.2l-39.3-82.8c5.4-11.3 10.2-22.9 14.4-34.6l86.3-30.7c9.5-3.4 18.3-9.4 25.1-17.8s10.7-18.3 11.9-28.4v-74.5c-1.2-10-5.1-19.9-11.9-28.4-6.8-8.5-15.5-14.5-25.1-17.8l-86.3-30.7c-4.2-11.7-8.9-23.3-14.4-34.7l39.3-82.8c4.3-9.1 6.3-19.5 5.1-30.2-1.2-10.8-5.3-20.5-11.5-28.4l-52.9-52.9c-8-6.2-17.7-10.4-28.4-11.5-10.8-1.2-21.1 0.8-30.2 5.1l-82.8 39.3c-11.4-5.4-22.9-10.2-34.7-14.4L595.4-27c-3.4-9.5-9.4-18.3-17.8-25.1-8.5-6.8-18.3-10.7-28.4-11.9h-74.4c-10 1.2-19.9 5.1-28.4 11.9-8.5 6.8-14.5 15.5-17.8 25.1l-30.7 86.3c-11.7 4.2-23.3 8.9-34.7 14.4l-82.8-39.3c-9.1-4.3-19.5-6.3-30.2-5.1s-20.5 5.3-28.4 11.5l-52.9 52.9c-6.2 8-10.4 17.7-11.5 28.4-1.2 10.8 0.8 21.1 5.1 30.2l39.3 82.8c-5.4 11.4-10.2 22.9-14.4 34.7L101 300.6c-9.5 3.4-18.3 9.4-25.1 17.8-6.8 8.5-10.7 18.3-11.9 28.4v74.5z m56.1-6.6c-1.8-20.3-1.8-41.1 0-61.3l112.3-39.9 4.2-13.5c5.3-17.6 12.5-34.7 21.2-51.2l6.6-12.5-51.1-107.6c13.3-15.5 27.8-30.1 43.4-43.4l107.6 51.1 12.5-6.6c16.5-8.7 33.6-15.9 51.2-21.2l13.5-4.2 39.9-112.3c10.1-0.9 20.3-1.4 30.6-1.4s20.5 0.5 30.6 1.4l39.9 112.3 13.5 4.2c17.6 5.3 34.7 12.5 51.2 21.2l12.5 6.6 107.6-51.1c15.5 13.3 30.1 27.8 43.4 43.4l-51.1 107.6 6.6 12.5c8.7 16.5 15.9 33.6 21.2 51.2l4.2 13.5 112.3 39.9c1.8 20.2 1.8 41 0 61.3l-112.3 39.9-4.2 13.5c-5.3 17.5-12.5 34.7-21.2 51.1l-6.6 12.5 51.1 107.6c-13.3 15.5-27.8 30.1-43.4 43.4l-107.6-51.1-12.5 6.6c-16.5 8.7-33.6 15.9-51.2 21.2l-13.5 4.2-39.9 112.3c-10.1 0.9-20.3 1.4-30.6 1.4s-20.5-0.5-30.6-1.4l-39.9-112.3-13.5-4.2c-17.6-5.3-34.7-12.5-51.2-21.2l-12.5-6.6-107.6 51.1c-15.5-13.3-30.1-27.8-43.4-43.4l51.1-107.6-6.6-12.5c-8.7-16.4-15.9-33.6-21.2-51.1l-4.2-13.5-112.3-39.9zM512 510c69.5 0 126-56.5 126-126s-56.5-126-126-126-126 56.5-126 126 56.5 126 126 126m0 56c-100.5 0-182-81.5-182-182s81.5-182 182-182 182 81.5 182 182-81.5 182-182 182z"  horiz-adv-x="1024" />

    
    <glyph glyph-name="dizhiguanli" unicode="&#58943;" d="M842.29688853 254.06577813L580.8355552-48.355555200000026a91.02222187 91.02222187 0 0 0-137.6711104-0.06826667L177.7436448 258.18453333c-1.2288 1.4108448-2.2755552 2.95822187-3.072 4.55111147A385.16053333 385.16053333 0 0 0 125.1555552 452.26666667c0 213.65191147 173.19253333 386.8444448 386.8444448 386.8444448s386.8444448-173.19253333 386.8444448-386.8444448c0-67.9936-17.5900448-133.5068448-50.5400896-191.32871147a22.68728853 22.68728853 0 0 0-6.00746667-6.84942187zM811.008 287.51644480000004A339.67217813 339.67217813 0 0 1 853.33333333 452.26666667c0 188.50702187-152.82631147 341.33333333-341.33333333 341.33333333-188.50702187 0-341.33333333-152.82631147-341.33333333-341.33333333 0-59.0051552 14.9731552-115.75751147 43.07626666-166.1155552l263.8051552-304.78791147a45.51111147 45.51111147 0 0 1 68.85831147 0.0227552L811.008 287.51644480000004zM512 292.97777813000005a159.28888853 159.28888853 0 1 0 0 318.57777707 159.28888853 159.28888853 0 0 0 0-318.57777707z m0 45.5111104a113.77777813 113.77777813 0 1 1 0 227.55555627 113.77777813 113.77777813 0 0 1 0-227.55555627z"  horiz-adv-x="1024" />

    
    <glyph glyph-name="daifahuo" unicode="&#58890;" d="M912.49777813-66.55999999999995H111.50222187C68.26666667-66.55999999999995 34.13333333-39.25333333000003 34.13333333-2.8444448000000193V770.8444448c0 36.40888853 34.13333333 63.7155552 77.36888854 63.7155552h803.27111146C955.73333333 834.56 989.86666667 807.25333333 989.86666667 770.8444448v-773.6888896c0-36.40888853-34.13333333-63.7155552-77.36888854-63.7155552zM88.74666667-2.8444448000000193c0-2.2755552 9.10222187-9.10222187 22.7555552-9.10222187h803.27111146c13.65333333 0 22.7555552 6.82666667 22.7555552 9.10222187V770.8444448c0 2.2755552-9.10222187 9.10222187-22.7555552 9.10222187H111.50222187c-13.65333333 0-22.7555552-6.82666667-22.7555552-9.10222187v-773.6888896zM106.666667 535.4666669999999h243.2v-53.333334H106.666667zM691.2 535.4666669999999h243.2v-53.333334H691.2zM174.933333 422.4h93.866667v-93.866667H174.933333zM676.266667 288c-4.266667 0-10.666667 2.133333-14.933334 4.266667l-145.066666 93.866666-145.066667-93.866666c-8.533333-4.266667-19.2-6.4-27.733333 0-8.533333 4.266667-12.8 12.8-12.8 23.466666V759.466667H384v-394.666667l119.466667 76.8c8.533333 6.4 19.2 6.4 27.733333 0l119.466667-76.8V759.466667H704v-443.733334c0-10.666667-4.266667-19.2-12.8-23.466666-6.4-2.133333-10.666667-4.266667-14.933333-4.266667z"  horiz-adv-x="1024" />

    


  </font>
</defs>
</svg>
